<?xml version="1.0" encoding="UTF-8"?>
<!DOCTYPE svg PUBLIC "-//W3C//DTD SVG 1.1//EN" "http://www.w3.org/Graphics/SVG/1.1/DTD/svg11.dtd">
<!-- Creator: CorelDRAW X8 -->
<svg xmlns="http://www.w3.org/2000/svg" xml:space="preserve" width="64.2762mm" height="14.3186mm" version="1.1" style="shape-rendering:geometricPrecision; text-rendering:geometricPrecision; image-rendering:optimizeQuality; fill-rule:evenodd; clip-rule:evenodd"
viewBox="0 0 2542 566"
 xmlns:xlink="http://www.w3.org/1999/xlink">
 <defs>
  <style type="text/css">
   <![CDATA[
    .fil2 {fill:#FEFEFE;fill-rule:nonzero}
    .fil0 {fill:#372B2E;fill-rule:nonzero}
    .fil1 {fill:#623C84;fill-rule:nonzero}
   ]]>
  </style>
 </defs>
 <g id="Capa_x0020_1">
  <metadata id="CorelCorpID_0Corel-Layer"/>
  <g id="_2150571592432">
   <path class="fil0" d="M1399 530c-3,-2 -6,-4 -8,-6 -3,-2 -5,-5 -6,-8 -2,-4 -2,-7 -2,-11 0,-4 0,-7 2,-10 1,-4 3,-7 6,-9 2,-2 5,-4 8,-6 3,-1 7,-2 11,-2l122 0c3,0 5,1 7,3 2,2 3,4 3,7 0,3 -1,5 -3,7 -2,2 -4,3 -7,3l-123 0c-2,0 -4,0 -5,2 -2,1 -2,3 -2,5 0,2 0,4 2,5 1,2 3,3 5,3l112 0c4,0 7,0 11,2 3,1 6,3 8,5 3,3 5,6 6,9 1,3 2,7 2,11 0,3 -1,7 -2,10 -1,3 -3,6 -6,9 -2,2 -5,4 -8,5 -4,2 -7,2 -11,2l-123 0c-2,0 -5,-1 -6,-3 -2,-1 -3,-4 -3,-6 0,-3 1,-5 3,-7 1,-2 4,-3 6,-3l124 0c2,0 4,-1 5,-2 2,-2 2,-3 2,-5 0,-3 0,-4 -2,-6 -1,-1 -3,-2 -5,-2l-112 0c-4,0 -8,-1 -11,-2z"/>
   <path class="fil0" d="M1724 481c2,2 3,4 3,7 0,3 -1,5 -3,7 -2,2 -4,3 -7,3l-60 0 0 59c0,2 -1,5 -2,6 -2,2 -5,3 -7,3 -3,0 -5,-1 -7,-3 -2,-1 -3,-4 -3,-6l0 -59 -61 0c-2,-1 -4,-2 -6,-4 -2,-1 -3,-4 -3,-6 0,-3 1,-5 3,-7 2,-2 4,-3 7,-3l139 0c3,0 5,1 7,3z"/>
   <path class="fil0" d="M1768 530c0,3 1,6 3,8 2,3 4,5 7,6 3,2 7,3 11,3l81 0c4,0 8,-1 11,-3 3,-1 5,-3 7,-6 2,-2 3,-5 4,-8 0,-3 0,-5 0,-8l0 -34c0,-3 1,-5 3,-7 2,-2 5,-3 7,-3 3,0 5,1 7,3 2,2 3,4 3,7l0 34c0,5 -1,11 -3,16 -1,5 -4,10 -7,14 -3,4 -7,8 -12,10 -4,3 -10,4 -15,4l-93 0c-5,0 -10,-1 -14,-4 -5,-3 -8,-6 -11,-11 -3,-4 -6,-8 -7,-14 -2,-5 -3,-10 -3,-15l0 -34c0,-3 1,-5 3,-7 2,-2 4,-3 7,-3 3,0 5,1 7,3 2,2 3,4 3,7l0 34c0,3 0,5 1,8z"/>
   <path class="fil0" d="M2056 547c4,0 8,-1 11,-3 3,-1 5,-3 7,-6 2,-2 3,-5 3,-8 1,-3 1,-5 1,-8 0,-2 0,-5 -1,-8 0,-3 -1,-5 -3,-8 -2,-2 -4,-4 -7,-6 -3,-2 -7,-2 -11,-2l-114 0c-3,0 -5,-1 -7,-3 -2,-2 -3,-4 -3,-7 0,-3 1,-5 3,-7 2,-2 4,-3 7,-3l118 0c6,0 11,1 15,4 5,3 9,6 12,11 3,4 6,9 7,14 2,5 3,10 3,15 0,5 -1,10 -2,15 -2,6 -4,10 -7,14 -3,5 -7,8 -11,11 -5,3 -10,4 -15,4l-120 0c-3,0 -5,-1 -7,-3 -2,-1 -3,-4 -3,-6l0 -35c0,-2 1,-5 3,-7 2,-2 4,-2 7,-2 3,0 5,0 7,2 2,2 3,5 3,7l0 25 104 0z"/>
   <path class="fil0" d="M2134 563c-2,2 -4,3 -7,3 -3,0 -5,-1 -7,-3 -2,-1 -3,-4 -3,-6l0 -69c0,-3 1,-5 3,-7 2,-2 4,-3 7,-3 3,0 5,1 7,3 2,2 3,4 3,7l0 69c0,2 -1,5 -3,6z"/>
   <path class="fil0" d="M2291 544c3,-1 6,-3 7,-6 2,-2 3,-5 4,-8 0,-3 1,-5 1,-8 0,-2 -1,-5 -1,-8 -1,-3 -2,-5 -4,-8 -1,-2 -4,-4 -7,-6 -3,-2 -6,-2 -11,-2l-82 0c-4,0 -8,0 -11,2 -3,2 -5,4 -7,6 -2,3 -3,5 -3,8 -1,3 -1,6 -1,8 0,3 0,5 1,8 0,3 1,6 3,8 2,3 4,5 7,6 3,2 7,3 11,3l82 0c5,0 8,-1 11,-3zm31 -22c0,5 -1,11 -3,16 -2,5 -4,10 -7,14 -4,4 -8,8 -12,10 -5,3 -10,4 -16,4l-92 0c-5,0 -10,-1 -15,-4 -4,-3 -8,-6 -11,-11 -3,-4 -5,-8 -7,-14 -1,-5 -2,-10 -2,-15 0,-5 1,-10 2,-15 2,-5 5,-10 8,-14 3,-5 7,-8 12,-11 4,-3 9,-4 15,-4l92 0c6,0 11,2 15,5 4,2 8,6 11,10 3,4 6,9 7,14 2,5 3,10 3,15z"/>
   <polygon class="fil1" points="1113,457 825,457 825,1 1113,1 1113,93 919,93 919,182 1013,182 1013,275 919,275 919,364 1113,364 "/>
   <polygon class="fil1" points="1357,457 1160,1 1262,1 1415,333 "/>
   <path class="fil0" d="M1634 294l-35 -75 -35 75 70 0zm180 163l-104 0 -33 -70 -157 0 -33 70 -103 0 215 -457 215 457z"/>
   <path class="fil0" d="M1632 294l-34 -75 -35 75 69 0zm180 163l-103 0 -33 -70 -157 0 -34 70 -102 0 215 -457 214 457z"/>
   <path class="fil0" d="M2173 133c-1,-8 -2,-15 -5,-22 -3,-9 -7,-19 -13,-30 -5,-11 -12,-21 -20,-29 -11,-12 -21,-21 -31,-27 -11,-6 -22,-12 -34,-16 -1,-1 -4,-1 -8,-3 -4,-1 -8,-2 -12,-3 -4,-1 -8,-1 -13,-2 -4,-1 -7,-1 -10,-1l-203 0 37 93 93 0 0 0 69 0c0,0 2,0 5,0 3,1 6,1 8,2 8,2 15,5 21,10 5,4 10,9 14,15 4,5 7,11 9,17 2,6 3,12 3,18 0,12 -4,24 -12,36 -8,12 -19,21 -35,25 -1,0 -4,1 -7,1 -4,1 -6,1 -6,1l-69 0 0 0 -93 0 0 239 93 0 0 -147 74 0c5,0 11,-1 18,-2 7,-2 12,-3 16,-4 16,-4 30,-11 44,-20 14,-9 26,-20 36,-33 10,-13 18,-27 24,-44 6,-16 9,-33 9,-52 0,-7 -1,-15 -2,-22z"/>
   <path class="fil0" d="M2541 133c-1,-8 -3,-15 -5,-22 -3,-9 -8,-19 -13,-30 -6,-11 -13,-21 -20,-29 -11,-12 -22,-21 -32,-27 -10,-6 -21,-12 -33,-16 -2,-1 -5,-1 -8,-3 -4,-1 -8,-2 -12,-3 -5,-1 -9,-1 -13,-2 -4,-1 -8,-1 -11,-1l-202 0 36 93 93 0 0 0 69 0c1,0 2,0 5,0 3,1 6,1 9,2 8,2 14,5 20,10 6,4 11,9 15,15 4,5 6,11 8,17 2,6 3,12 3,18 0,12 -4,24 -11,36 -8,12 -20,21 -35,25 -2,0 -4,1 -8,1 -3,1 -5,1 -6,1l-69 0 0 0 -93 0 0 239 93 0 0 -147 75 0c5,0 11,-1 18,-2 7,-2 12,-3 16,-4 15,-4 30,-11 44,-20 13,-9 25,-20 35,-33 11,-13 19,-27 25,-44 5,-16 8,-33 8,-52 0,-7 0,-15 -1,-22z"/>
   <path class="fil1" d="M685 266c-3,13 -9,26 -16,38 -8,12 -17,23 -29,33 -12,9 -27,17 -45,22 -2,1 -6,2 -11,3 -5,1 -9,2 -13,2l-70 -1 -9 0 0 -271 37 0 41 1c2,0 5,0 9,1 3,1 6,2 10,2 3,1 7,2 10,3 3,1 5,2 6,2 15,6 27,14 38,23 10,10 19,20 26,32 7,11 12,23 15,35 4,12 5,24 5,35 0,13 -1,27 -4,40zm89 -86c-4,-14 -9,-31 -16,-48 -1,-4 -3,-8 -5,-11 -2,-3 -3,-6 -5,-9 -6,-12 -14,-23 -23,-34 -9,-10 -18,-20 -28,-28 -10,-8 -20,-15 -31,-21 -10,-6 -20,-11 -29,-14 -2,-1 -5,-2 -10,-3 -5,-2 -11,-4 -17,-5 -7,-2 -13,-3 -19,-5 -7,-1 -12,-2 -15,-2l-164 0 0 456 164 1c2,0 6,-1 11,-1 4,-1 9,-2 14,-3 4,-1 9,-2 13,-3 4,-1 7,-2 9,-2 27,-10 51,-22 70,-38 20,-16 36,-34 49,-54 12,-20 22,-41 28,-62 6,-22 9,-43 9,-64 0,-18 -2,-35 -5,-50z"/>
   <polygon class="fil2" points="0,457 365,457 365,1 0,1 "/>
   <path class="fil1" d="M313 247c0,1 0,1 0,2 -6,13 -14,17 -20,19 -4,1 -8,1 -12,0 2,11 0,20 -5,27 -7,8 -19,10 -28,10 -9,0 -16,-1 -17,-2 -4,-1 -7,-5 -6,-9 1,-4 5,-7 10,-6 5,1 23,4 29,-3 4,-5 3,-15 -3,-29 -1,-3 0,-7 3,-9 3,-2 7,-2 9,0 3,2 10,7 16,5 4,-1 7,-4 9,-9 1,-3 3,-15 -3,-25 -3,-5 -8,-8 -16,-9 -4,0 -14,0 -22,-8 -4,-3 -9,-10 -9,-23 1,-4 4,-7 8,-7l0 0c5,0 8,3 8,8 0,5 1,8 4,11 3,3 10,3 10,3 1,-1 2,-1 3,0 11,2 19,6 25,14 4,-6 9,-14 8,-22 -3,-9 -15,-14 -25,-17 -4,-2 -6,-6 -5,-10 1,-4 6,-7 10,-6 6,2 12,5 16,7 2,-6 5,-16 1,-25 -3,-7 -10,-11 -21,-14 -16,-3 -34,-3 -38,0 0,1 1,2 3,5 2,3 2,8 -2,11 -3,3 -8,2 -11,-1 -8,-11 -6,-19 -4,-23 8,-14 41,-10 55,-8 0,1 1,1 1,1 0,-3 -1,-8 -4,-11 -3,-3 -8,-4 -15,-4 -3,1 -5,-1 -7,-2 -2,-2 -2,-5 -2,-8 1,-2 2,-10 -2,-14 -2,-2 -6,-3 -10,-2 -1,4 -4,9 -8,12 -4,3 -9,6 -17,5 0,3 0,7 0,10 -1,5 -5,8 -9,7 -4,0 -7,-4 -7,-9 1,-8 -4,-13 -4,-13 -3,-3 -3,-7 -2,-10 2,-3 6,-5 9,-4l11 3c4,1 7,0 9,-1 2,-2 3,-5 3,-6 -2,-5 -8,-14 -23,-9 -3,1 -7,-1 -8,-4 -2,-3 -6,-7 -9,-7 -2,0 -3,2 -4,3 -1,1 -1,2 -2,2 0,1 -2,2 -2,7 0,5 0,10 -1,17l0 87c0,5 -3,8 -7,8 -5,0 -8,-3 -8,-8l0 -87c-1,-7 -1,-12 0,-17 -1,-5 -2,-6 -3,-7 0,0 -1,-1 -2,-2 -1,-1 -3,-3 -4,-3 -3,0 -7,5 -8,7 -2,3 -6,5 -9,4 -15,-5 -21,4 -23,9 0,1 1,4 3,6 2,1 6,2 10,1l10 -3c4,-1 7,1 9,4 2,3 1,7 -2,10 0,0 -5,5 -4,13 1,5 -3,9 -7,9 -4,1 -8,-2 -9,-7 0,-3 0,-7 1,-10 -9,1 -14,-2 -18,-5 -4,-3 -7,-8 -8,-12 -4,0 -8,0 -10,3 -4,3 -3,11 -2,13 1,3 0,6 -2,8 -1,1 -4,3 -6,2 -7,0 -12,1 -16,4 -2,3 -3,7 -4,11 1,0 1,0 1,-1 14,-2 47,-6 55,8 3,4 4,12 -4,23 -3,3 -8,4 -11,1 -3,-3 -4,-8 -1,-11 1,-3 2,-4 2,-5 -4,-3 -22,-3 -38,0 -11,3 -18,7 -21,14 -4,9 -1,19 1,25 5,-2 10,-5 16,-7 5,-1 9,2 10,6 1,4 -1,8 -5,10 -10,3 -22,8 -24,17 -2,8 3,16 7,22 6,-8 15,-12 26,-14 0,-1 1,-1 2,0 2,0 7,0 11,-3 2,-3 3,-6 3,-11 0,-5 3,-8 8,-8 4,0 8,3 8,7 0,13 -5,20 -9,23 -8,8 -18,8 -22,8 -7,1 -13,4 -16,10 -6,9 -4,21 -3,24 2,5 5,8 9,9 7,2 16,-5 16,-5 3,-2 7,-2 9,0 3,2 4,6 3,9 -6,14 -6,24 -3,29 6,6 23,5 30,3 4,-1 8,1 9,6 1,4 -1,8 -6,9 -1,1 -8,2 -17,2 -9,0 -20,-2 -27,-10 -6,-7 -8,-16 -6,-27 -4,1 -8,1 -12,0 -6,-2 -14,-6 -20,-19 0,-1 0,-1 0,-2 0,0 -3,-12 0,-25 -5,-5 -20,-22 -16,-40 1,-5 3,-9 6,-12 -2,-6 -10,-25 -2,-42 3,-7 8,-13 16,-17 -1,-2 -2,-17 8,-28 5,-5 11,-8 19,-8 0,-6 1,-14 6,-19 6,-6 14,-9 24,-8 6,-9 17,-19 35,-16 4,-4 10,-9 18,-10 4,0 10,1 16,9 0,0 0,0 1,0 0,0 0,0 0,0 6,-8 12,-9 17,-9 7,1 14,6 17,10 18,-3 30,7 35,16 10,-1 18,2 24,8 5,5 6,13 7,19 7,0 13,3 18,8 10,11 9,26 9,28 7,4 12,10 15,17 8,17 1,36 -2,42 3,3 5,7 6,12 4,18 -11,35 -16,40 3,13 1,25 0,25zm-57 76c0,0 -11,9 -16,31 0,4 -4,6 -7,6 -1,0 -1,0 -2,0 -4,-1 -7,-5 -6,-9 7,-29 21,-40 22,-41 3,-2 8,-2 11,2 2,3 2,8 -2,11zm-51 -94c18,-13 22,-27 22,-27 1,-4 5,-7 9,-5 4,1 7,5 6,9 0,1 -5,19 -28,36 -1,1 -3,2 -5,2 -2,0 -4,-1 -6,-3 -3,-4 -2,-9 2,-12zm-3 30c1,-4 6,-6 10,-5 4,1 6,6 5,10 0,1 -15,50 -11,88 1,4 -2,8 -7,8 0,0 0,0 0,0 -4,0 -8,-3 -8,-7 -5,-41 10,-91 11,-94zm-28 -70c-1,-4 1,-9 5,-10 5,-1 9,1 10,5 1,1 6,19 -4,46 -1,3 -4,5 -7,5 -1,0 -2,0 -3,-1 -4,-1 -6,-6 -5,-10 8,-21 4,-35 4,-35zm-51 25c-5,-1 -7,-5 -6,-10 2,-4 6,-6 10,-5 1,0 18,6 34,30 3,3 2,8 -2,11 -1,1 -2,1 -4,1 -3,0 -5,-1 -6,-3 -13,-19 -26,-24 -26,-24zm30 40c4,-1 9,2 10,6 0,2 13,54 11,93 0,4 -4,7 -8,7 0,0 0,0 0,0 -4,0 -8,-3 -8,-8 2,-36 -11,-88 -11,-88 -1,-5 2,-9 6,-10zm79 135l-100 0c-4,0 -7,-3 -7,-8 0,-4 3,-8 7,-8l100 0c4,0 8,4 8,8 0,5 -4,8 -8,8zm-18 29l-12 0c0,1 0,2 0,3 0,11 -8,19 -19,19 -10,0 -18,-8 -18,-19 0,-1 0,-2 0,-3l-12 0c-5,0 -8,-3 -8,-8 0,-4 3,-8 8,-8l30 0c0,0 0,0 0,0l0 0 31 0c4,0 8,4 8,8 0,5 -4,8 -8,8zm-105 -95c-3,-3 -4,-8 -1,-11 2,-4 7,-4 11,-2 0,1 15,12 21,41 1,4 -2,8 -6,9 0,0 -1,0 -2,0 -3,0 -6,-2 -7,-6 -5,-22 -16,-31 -16,-31zm-109 134l365 0 0 -456 -365 0 0 456zm0 -456l0 456z"/>
  </g>
 </g>
</svg>
