<?xml version="1.0" encoding="UTF-8"?>
<!DOCTYPE svg PUBLIC "-//W3C//DTD SVG 1.1//EN" "http://www.w3.org/Graphics/SVG/1.1/DTD/svg11.dtd">
<!-- Creator: CorelDRAW X8 -->
<svg xmlns="http://www.w3.org/2000/svg" xml:space="preserve" width="151.824mm" height="33.8214mm" version="1.1" style="shape-rendering:geometricPrecision; text-rendering:geometricPrecision; image-rendering:optimizeQuality; fill-rule:evenodd; clip-rule:evenodd"
viewBox="0 0 15182 3382"
 xmlns:xlink="http://www.w3.org/1999/xlink">
 <defs>
  <style type="text/css">
   <![CDATA[
    .fil0 {fill:#FEFEFE;fill-rule:nonzero}
   ]]>
  </style>
 </defs>
 <g id="Capa_x0020_1">
  <metadata id="CorelCorpID_0Corel-Layer"/>
  <g id="_2150571591088">
   <path class="fil0" d="M8356 3164c-20,-8 -37,-20 -51,-34 -15,-15 -26,-32 -34,-51 -9,-19 -13,-40 -13,-63 0,-22 4,-43 13,-63 8,-19 19,-36 34,-50 14,-15 31,-26 51,-35 19,-8 40,-13 62,-13l734 0c16,0 30,6 41,17 11,12 17,25 17,41 0,16 -6,30 -17,41 -11,12 -25,17 -41,17l-736 0c-12,0 -23,5 -32,13 -9,8 -14,19 -14,32 0,12 5,23 14,32 9,8 20,13 32,13l668 0c23,0 44,4 64,13 19,8 36,19 51,34 14,14 26,32 34,51 9,20 13,41 13,64 0,22 -4,43 -13,63 -8,19 -20,36 -34,50 -15,15 -32,26 -51,34 -20,8 -41,12 -64,12l-732 0c-16,0 -30,-5 -41,-17 -11,-11 -17,-25 -17,-41 0,-16 6,-30 17,-41 11,-11 25,-17 41,-17l737 0c12,0 23,-4 31,-13 9,-8 14,-18 14,-30 0,-13 -5,-24 -14,-33 -8,-9 -19,-13 -31,-13l-671 0c-22,0 -43,-4 -62,-13z"/>
   <path class="fil0" d="M10297 2872c11,12 17,25 17,41 0,16 -6,30 -17,41 -11,12 -25,17 -41,17l-358 0 0 353c0,16 -5,30 -16,41 -12,12 -25,17 -42,17 -16,0 -29,-5 -41,-17 -11,-11 -16,-25 -16,-41l0 -353 -363 0c-15,-1 -27,-7 -37,-18 -11,-11 -16,-24 -16,-40 0,-16 5,-29 17,-41 11,-11 25,-17 41,-17l831 0c16,0 30,6 41,17z"/>
   <path class="fil0" d="M10556 3167c4,17 11,33 21,47 10,15 24,27 41,37 17,10 40,15 68,15l481 0c27,0 50,-5 68,-15 17,-10 31,-22 41,-37 10,-14 17,-30 21,-47 3,-18 5,-34 5,-48l0 -204c0,-16 6,-30 17,-41 11,-12 25,-17 41,-17 16,0 30,5 41,17 12,11 17,25 17,41l0 204c0,30 -5,61 -15,92 -10,31 -25,59 -44,85 -19,25 -43,46 -70,62 -27,16 -58,24 -93,24l-551 0c-33,-1 -62,-10 -88,-27 -26,-17 -48,-37 -66,-62 -18,-25 -32,-53 -42,-84 -9,-30 -14,-60 -14,-90l0 -204c0,-16 5,-30 17,-41 11,-12 25,-17 41,-17 16,0 30,5 41,17 11,11 17,25 17,41l0 204c0,14 2,30 5,48z"/>
   <path class="fil0" d="M12276 3266c27,0 50,-5 68,-15 17,-10 31,-22 41,-37 10,-14 17,-30 21,-47 4,-18 5,-34 5,-48 0,-15 -1,-31 -5,-48 -4,-17 -11,-33 -21,-48 -10,-14 -24,-26 -41,-37 -18,-10 -41,-15 -68,-15l-679 0c-16,0 -30,-5 -41,-17 -11,-11 -17,-25 -17,-41 0,-16 6,-29 17,-41 11,-11 25,-17 41,-17l704 0c35,0 66,8 93,25 28,16 51,36 70,62 20,25 35,53 45,84 10,31 15,62 15,93 0,30 -5,60 -15,90 -9,31 -23,59 -42,84 -18,25 -40,45 -65,62 -26,17 -56,26 -89,27l-716 0c-16,0 -30,-5 -41,-17 -11,-11 -17,-25 -17,-41l0 -205c0,-16 6,-30 17,-41 11,-12 25,-17 41,-17 16,0 30,5 41,17 11,11 17,25 17,41l0 147 621 0z"/>
   <path class="fil0" d="M12744 3365c-12,12 -25,17 -42,17 -16,0 -29,-5 -41,-17 -11,-11 -17,-25 -17,-41l0 -411c0,-16 6,-29 17,-41 12,-11 25,-17 41,-17 17,0 30,6 42,17 11,12 16,25 16,41l0 411c0,16 -5,30 -16,41z"/>
   <path class="fil0" d="M13685 3251c17,-10 31,-22 41,-37 10,-14 17,-30 21,-47 4,-18 5,-34 5,-48 0,-15 -1,-31 -5,-48 -4,-17 -11,-33 -21,-48 -10,-14 -24,-26 -41,-37 -18,-10 -41,-15 -68,-15l-488 0c-28,0 -51,5 -68,15 -18,11 -31,23 -41,37 -10,15 -17,31 -21,48 -4,17 -5,33 -5,48 0,14 1,30 5,48 4,17 11,33 21,47 10,15 23,27 41,37 17,10 40,15 68,15l488 0c27,0 50,-5 68,-15zm180 -132c0,30 -5,61 -15,92 -10,31 -25,59 -44,85 -20,25 -43,46 -71,62 -27,16 -58,24 -93,24l-551 0c-33,-1 -62,-10 -88,-27 -25,-17 -47,-37 -66,-62 -18,-25 -32,-53 -41,-84 -10,-30 -15,-60 -15,-90 0,-31 5,-62 15,-93 10,-31 25,-59 44,-84 20,-26 43,-46 71,-62 27,-17 58,-25 93,-25l550 0c33,2 63,11 89,28 25,16 47,37 66,62 18,25 32,53 41,83 10,31 15,61 15,91z"/>
   <polygon class="fil0" points="6649,2728 4929,2728 4929,4 6649,4 6649,554 5487,554 5487,1089 6053,1089 6053,1643 5487,1643 5487,2174 6649,2174 "/>
   <polygon class="fil0" points="8104,2728 6928,4 7537,4 8449,1986 "/>
   <path class="fil0" d="M9757 1754l-207 -444 -210 444 417 0zm1074 978l-616 0 -199 -421 -938 0 -199 421 -613 0 1284 -2732 1281 2732z"/>
   <path class="fil0" d="M9749 1754l-207 -444 -210 444 417 0zm1074 978l-616 0 -200 -421 -937 0 -200 421 -613 0 1285 -2732 1281 2732z"/>
   <path class="fil0" d="M12978 794c-6,-45 -15,-88 -27,-130 -20,-56 -47,-117 -80,-182 -33,-65 -73,-123 -120,-172 -64,-71 -127,-125 -188,-162 -62,-37 -128,-69 -199,-96 -10,-3 -26,-7 -48,-13 -23,-6 -47,-13 -72,-19 -26,-6 -51,-11 -76,-14 -25,-4 -46,-6 -63,-6l-1209 0 216 554 558 0 0 0 409 0c3,0 13,1 32,3 18,3 35,7 50,11 46,13 87,32 121,58 35,26 64,55 87,88 23,34 41,69 52,106 11,36 16,72 16,107 0,68 -22,140 -68,214 -45,73 -115,123 -208,147 -10,3 -25,6 -45,10 -19,3 -32,5 -37,5l-409 0 0 0 -558 0 0 1425 558 0 0 -875 443 0c29,0 65,-5 107,-15 42,-9 73,-17 96,-22 93,-24 180,-64 262,-118 81,-54 152,-120 214,-197 61,-78 109,-165 144,-263 34,-97 51,-201 51,-311 0,-45 -3,-89 -9,-133z"/>
   <path class="fil0" d="M15173 794c-6,-45 -15,-88 -28,-130 -19,-56 -46,-117 -79,-182 -33,-65 -73,-123 -120,-172 -64,-71 -127,-125 -188,-162 -62,-37 -128,-69 -199,-96 -10,-3 -26,-7 -49,-13 -22,-6 -46,-13 -71,-19 -26,-6 -52,-11 -76,-14 -25,-4 -46,-6 -63,-6l-1210 0 217 554 557 0 0 0 410 0c3,0 13,1 32,3 18,3 35,7 49,11 47,13 88,32 122,58 35,26 64,55 87,88 23,34 41,69 52,106 11,36 16,72 16,107 0,68 -23,140 -68,214 -46,73 -115,123 -209,147 -9,3 -24,6 -44,10 -20,3 -32,5 -37,5l-410 0 0 0 -557 0 0 1425 557 0 0 -875 443 0c30,0 66,-5 108,-15 41,-9 73,-17 95,-22 94,-24 181,-64 263,-118 81,-54 152,-120 214,-197 61,-78 109,-165 144,-263 34,-97 51,-201 51,-311 0,-45 -3,-89 -9,-133z"/>
   <path class="fil0" d="M4089 1587c-18,79 -50,155 -95,227 -45,73 -102,138 -173,196 -71,58 -159,103 -265,135 -14,5 -37,11 -67,18 -31,8 -57,11 -78,11l-418 -6 -55 0 0 -1621 221 0 245 7c14,0 31,2 51,7 20,5 41,10 62,15 21,5 41,10 59,17 17,6 31,10 40,12 85,35 159,80 223,137 63,57 116,119 157,188 41,69 72,140 92,213 20,72 30,142 30,208 0,79 -10,158 -29,236zm532 -509c-20,-89 -51,-186 -93,-292 -10,-22 -20,-43 -31,-62 -10,-20 -20,-39 -30,-56 -37,-71 -83,-138 -135,-201 -54,-63 -110,-119 -170,-168 -60,-49 -121,-92 -184,-127 -62,-36 -120,-64 -175,-83 -9,-3 -29,-9 -60,-19 -30,-10 -64,-20 -102,-29 -38,-10 -75,-19 -113,-28 -38,-9 -67,-13 -88,-13l-979 0 0 2721 979 7c14,0 35,-2 63,-7 28,-5 57,-11 85,-17 28,-6 55,-12 79,-18 25,-7 43,-11 55,-13 163,-55 302,-130 419,-226 116,-95 212,-203 288,-321 75,-118 131,-242 167,-372 37,-131 55,-258 55,-381 0,-108 -10,-206 -30,-295z"/>
   <path class="fil0" d="M1871 1477c0,3 -1,5 -2,7 -34,79 -83,106 -119,115 -24,6 -49,5 -71,1 12,68 1,122 -33,162 -42,50 -109,62 -166,62 -50,0 -92,-10 -101,-12 -25,-6 -40,-32 -34,-58 6,-25 31,-41 57,-34 33,8 137,22 173,-21 24,-28 19,-87 -14,-168 -9,-20 -2,-43 15,-56 17,-13 41,-13 57,1 14,11 60,39 95,30 21,-5 39,-24 54,-56 3,-16 16,-91 -19,-145 -20,-31 -51,-50 -97,-60 -23,2 -84,1 -131,-42 -24,-22 -53,-64 -51,-138 0,-26 21,-46 47,-46l1 0c25,0 46,22 46,48 -1,31 6,53 20,65 23,22 64,18 64,18 5,-1 10,0 14,0 66,12 116,41 151,85 26,-34 56,-85 46,-129 -13,-53 -86,-86 -145,-104 -25,-8 -39,-34 -32,-59 8,-26 34,-40 59,-32 37,11 70,25 98,41 13,-36 29,-99 5,-150 -18,-41 -61,-70 -127,-85 -94,-16 -201,-16 -227,0 2,5 6,14 17,28 16,21 12,51 -8,67 -21,16 -50,13 -66,-8 -49,-64 -41,-108 -25,-135 50,-84 245,-60 327,-45 3,0 4,1 7,1 -2,-19 -8,-44 -25,-62 -19,-19 -49,-27 -91,-24 -15,2 -30,-5 -40,-16 -9,-12 -13,-28 -9,-43 3,-14 8,-61 -12,-83 -13,-14 -38,-18 -62,-17 -7,24 -21,53 -49,75 -20,16 -53,33 -103,31 3,18 4,38 2,59 -3,26 -27,45 -52,42 -26,-3 -44,-27 -41,-53 5,-50 -26,-81 -26,-81 -16,-14 -20,-39 -10,-58 10,-20 32,-29 53,-23l65 17c22,4 41,2 54,-8 12,-10 17,-26 20,-37 -12,-26 -49,-79 -138,-53 -20,5 -41,-3 -52,-20 -11,-17 -36,-42 -51,-43 -10,1 -19,12 -25,19 -3,4 -7,8 -11,11 -2,2 -10,14 -15,41 3,27 4,60 -1,100l0 522c0,26 -20,47 -46,47 -26,0 -47,-21 -47,-47l0 -522c-4,-40 -4,-73 0,-100 -5,-27 -13,-39 -15,-41 -5,-3 -9,-7 -12,-11 -5,-7 -17,-19 -25,-19 -16,1 -41,28 -50,43 -12,17 -33,25 -53,20 -88,-26 -125,27 -138,53 3,11 9,27 21,37 12,10 32,12 58,7l60 -16c21,-6 43,3 53,23 11,19 7,44 -10,58 -1,1 -31,31 -25,81 3,26 -16,50 -41,53 -27,3 -49,-16 -52,-42 -3,-21 -2,-41 2,-60 -51,3 -84,-14 -104,-30 -27,-22 -41,-51 -49,-75 -24,-1 -48,3 -62,17 -21,23 -14,72 -11,83 3,15 0,31 -10,43 -10,11 -24,18 -39,16 -42,-3 -73,5 -92,24 -17,18 -22,43 -24,62 1,0 2,-1 4,-1 84,-15 280,-39 330,45 15,27 23,71 -26,135 -15,21 -45,24 -65,8 -21,-16 -24,-46 -8,-67 11,-14 15,-23 16,-28 -25,-16 -133,-16 -229,0 -64,15 -107,44 -125,85 -23,51 -7,114 6,150 28,-16 60,-30 98,-41 25,-8 51,6 58,32 7,25 -7,51 -31,59 -60,18 -133,51 -145,104 -10,44 19,95 46,129 35,-44 84,-73 150,-85 5,0 9,-1 14,0 11,1 45,1 65,-18 14,-13 21,-35 20,-65 -1,-26 20,-48 46,-48 28,0 47,20 48,46 1,74 -27,116 -52,138 -46,43 -108,44 -130,42 -46,10 -78,29 -98,60 -34,54 -21,129 -18,145 14,32 32,51 53,56 43,11 95,-30 95,-30 17,-14 41,-14 58,-1 17,13 23,36 15,56 -33,81 -39,141 -15,169 34,39 132,30 174,20 25,-7 50,9 57,34 6,26 -9,52 -35,58 -9,2 -51,12 -101,12 -57,0 -124,-12 -166,-62 -33,-40 -44,-94 -32,-162 -23,4 -47,5 -72,-1 -35,-9 -85,-36 -119,-115 -1,-2 -1,-4 -2,-7 -1,-4 -18,-74 -1,-150 -27,-28 -117,-131 -91,-242 5,-26 18,-49 35,-71 -17,-37 -60,-150 -15,-251 19,-43 51,-77 94,-102 -1,-13 -8,-101 51,-163 28,-30 65,-48 111,-53 0,-35 9,-78 40,-113 32,-35 80,-50 142,-46 32,-54 99,-113 208,-94 21,-25 59,-57 105,-59 26,-1 63,7 98,50 1,1 2,2 4,3 1,-1 3,-2 4,-3 35,-43 72,-51 98,-50 46,2 83,34 105,59 108,-19 175,40 208,94 62,-4 109,11 142,46 31,35 39,78 39,113 46,5 83,23 112,53 59,62 52,151 50,164 44,25 76,58 95,101 45,101 1,214 -15,251 17,22 29,45 35,71 26,111 -65,214 -92,242 18,76 0,146 -1,150zm-341 451c-2,2 -64,56 -94,188 -5,22 -24,37 -46,37 -3,0 -7,-1 -10,-1 -25,-6 -41,-32 -35,-58 38,-169 124,-238 128,-241 20,-16 50,-12 66,9 15,20 11,50 -9,66zm-146 397l-593 0c-26,0 -47,-21 -47,-47 0,-27 21,-48 47,-48l593 0c26,0 47,21 47,48 0,26 -21,47 -47,47zm-105 173l-75 0c1,6 2,12 2,18 0,62 -50,113 -111,113 -62,0 -111,-51 -111,-113 0,-6 0,-12 1,-18l-74 0c-26,0 -47,-21 -47,-48 0,-26 21,-47 47,-47l183 0c0,0 1,0 1,0l0 0 184 0c26,0 47,21 47,47 0,27 -21,48 -47,48zm-327 -1065c-8,5 -17,8 -26,8 -15,0 -30,-7 -39,-21 -76,-113 -154,-139 -155,-139 -25,-8 -39,-35 -31,-60 7,-25 32,-39 57,-32 5,2 110,34 206,177 15,22 9,52 -12,67zm88 674c-1,26 -22,46 -47,46 -1,0 -1,0 -2,0 -26,-1 -46,-23 -45,-50 9,-216 -65,-525 -66,-528 -6,-26 9,-52 34,-58 26,-6 51,10 57,35 3,13 78,325 69,555zm182 -737c109,-81 132,-162 132,-162 7,-26 32,-41 57,-34 25,6 40,32 34,57 -2,5 -29,113 -167,216 -8,6 -18,9 -28,9 -14,0 -28,-6 -37,-19 -16,-21 -11,-51 9,-67zm-17 180c8,-26 34,-40 59,-32 25,8 39,34 31,59 -1,3 -87,298 -62,523 2,26 -16,50 -42,52 -2,1 -3,1 -5,1 -24,0 -44,-18 -47,-42 -27,-246 63,-549 66,-561zm-163 -421c-8,-25 5,-51 30,-60 24,-7 50,6 59,30 1,5 35,111 -26,273 -7,19 -25,31 -44,31 -5,0 -11,-1 -16,-3 -24,-9 -37,-37 -27,-61 47,-129 24,-209 24,-210zm-391 799c-20,-16 -23,-46 -8,-66 16,-21 45,-25 65,-9 4,3 90,72 129,242 5,25 -10,51 -35,57 -4,0 -7,1 -11,1 -21,0 -41,-15 -46,-37 -30,-134 -93,-187 -94,-188zm-651 800l2181 0 0 -2721 -2181 0 0 2721zm0 -2721l0 2721z"/>
  </g>
 </g>
</svg>
